<svg xmlns="http://www.w3.org/2000/svg" viewBox="0 0 1600 1050" width="1600" height="1050">
<style>
text { font-family: 'Microsoft YaHei', 'PingFang SC', 'Noto Sans CJK SC', 'SimSun', Arial, sans-serif; }
</style>
<defs><marker id="arrow" markerWidth="10" markerHeight="7" refX="9" refY="3.5" orient="auto"><polygon points="0 0,10 3.5,0 7" fill="#000"/></marker></defs>
<rect width="1600" height="1050" fill="#fff"/>
<rect x="50" y="35" width="1500" height="95" fill="#fff" stroke="#000" stroke-width="1.6"/>
<text x="80" y="78" font-size="30" fill="#000" font-weight="900" text-anchor="start">气象智能分析平台总体架构</text>
<text x="80" y="110" font-size="14" fill="#000" font-weight="400" text-anchor="start">面向短时临近预报（短临）降水、空间研判和成果报告的分层架构；气象事实由工具计算，模型负责辅助表达。</text>
<rect x="1250" y="58" width="86" height="28" fill="#fff" stroke="#000" stroke-width="1.0"/>
<text x="1293" y="77" font-size="12" fill="#000" font-weight="800" text-anchor="middle">业务导向</text>
<rect x="1360" y="58" width="86" height="28" fill="#fff" stroke="#000" stroke-width="1.0"/>
<text x="1403" y="77" font-size="12" fill="#000" font-weight="800" text-anchor="middle">过程留痕</text>
<rect x="1470" y="58" width="58" height="28" fill="#fff" stroke="#000" stroke-width="1.0"/>
<text x="1499" y="77" font-size="12" fill="#000" font-weight="800" text-anchor="middle">可扩展</text>
<rect x="50" y="165" width="1500" height="110" fill="#fff" stroke="#000" stroke-width="1.4"/>
<rect x="70" y="183" width="150" height="74" fill="#fff" stroke="#000" stroke-width="1.1"/>
<text x="145" y="210" font-size="20" fill="#000" font-weight="900" text-anchor="middle">业务层</text>
<text x="145" y="237" font-size="12" fill="#000" font-weight="400" text-anchor="middle">谁来用</text>
<rect x="50" y="305" width="1500" height="132" fill="#fff" stroke="#000" stroke-width="1.4"/>
<rect x="70" y="323" width="150" height="96" fill="#fff" stroke="#000" stroke-width="1.1"/>
<text x="145" y="350" font-size="20" fill="#000" font-weight="900" text-anchor="middle">应用层</text>
<text x="145" y="377" font-size="12" fill="#000" font-weight="400" text-anchor="middle">做什么</text>
<rect x="50" y="470" width="1500" height="172" fill="#fff" stroke="#000" stroke-width="1.4"/>
<rect x="70" y="488" width="150" height="136" fill="#fff" stroke="#000" stroke-width="1.1"/>
<text x="145" y="515" font-size="20" fill="#000" font-weight="900" text-anchor="middle">能力层</text>
<text x="145" y="542" font-size="12" fill="#000" font-weight="400" text-anchor="middle">怎样分析</text>
<rect x="50" y="675" width="1500" height="132" fill="#fff" stroke="#000" stroke-width="1.4"/>
<rect x="70" y="693" width="150" height="96" fill="#fff" stroke="#000" stroke-width="1.1"/>
<text x="145" y="720" font-size="20" fill="#000" font-weight="900" text-anchor="middle">数据层</text>
<text x="145" y="747" font-size="12" fill="#000" font-weight="400" text-anchor="middle">依托什么</text>
<rect x="50" y="840" width="1500" height="120" fill="#fff" stroke="#000" stroke-width="1.4"/>
<rect x="70" y="858" width="150" height="84" fill="#fff" stroke="#000" stroke-width="1.1"/>
<text x="145" y="885" font-size="20" fill="#000" font-weight="900" text-anchor="middle">保障层</text>
<text x="145" y="912" font-size="12" fill="#000" font-weight="400" text-anchor="middle">如何可靠</text>
<rect x="270" y="190" width="250" height="60" fill="#fff" stroke="#000" stroke-width="1.1"/>
<text x="286" y="215" font-size="15.2" fill="#000" font-weight="800" text-anchor="start">预报员工作台</text>
<text x="286" y="238" font-size="11.8" fill="#000" font-weight="400" text-anchor="start">提问研判</text>
<text x="286" y="253" font-size="11.8" fill="#000" font-weight="400" text-anchor="start">查看地图结果</text>
<rect x="595" y="190" width="250" height="60" fill="#fff" stroke="#000" stroke-width="1.1"/>
<text x="611" y="215" font-size="15.2" fill="#000" font-weight="800" text-anchor="start">会商值班</text>
<text x="611" y="238" font-size="11.8" fill="#000" font-weight="400" text-anchor="start">快速浏览结论</text>
<text x="611" y="253" font-size="11.8" fill="#000" font-weight="400" text-anchor="start">关注重点区域</text>
<rect x="920" y="190" width="250" height="60" fill="#fff" stroke="#000" stroke-width="1.1"/>
<text x="936" y="215" font-size="15.2" fill="#000" font-weight="800" text-anchor="start">专题展示</text>
<text x="936" y="238" font-size="11.8" fill="#000" font-weight="400" text-anchor="start">服务大屏页面</text>
<text x="936" y="253" font-size="11.8" fill="#000" font-weight="400" text-anchor="start">共享业务成果</text>
<rect x="1245" y="190" width="250" height="60" fill="#fff" stroke="#000" stroke-width="1.1"/>
<text x="1261" y="215" font-size="15.2" fill="#000" font-weight="800" text-anchor="start">业务系统对接</text>
<text x="1261" y="238" font-size="11.8" fill="#000" font-weight="400" text-anchor="start">预留服务能力</text>
<text x="1261" y="253" font-size="11.8" fill="#000" font-weight="400" text-anchor="start">支撑后续扩展</text>
<rect x="270" y="333" width="250" height="76" fill="#fff" stroke="#000" stroke-width="1.1"/>
<text x="286" y="358" font-size="15.2" fill="#000" font-weight="800" text-anchor="start">资料接入管理</text>
<text x="286" y="381" font-size="11.8" fill="#000" font-weight="400" text-anchor="start">上传气象资料</text>
<text x="286" y="396" font-size="11.8" fill="#000" font-weight="400" text-anchor="start">登记业务图层</text>
<rect x="595" y="333" width="250" height="76" fill="#fff" stroke="#000" stroke-width="1.1"/>
<text x="611" y="358" font-size="15.2" fill="#000" font-weight="800" text-anchor="start">智能问答研判</text>
<text x="611" y="381" font-size="11.8" fill="#000" font-weight="400" text-anchor="start">生成分析任务</text>
<text x="611" y="396" font-size="11.8" fill="#000" font-weight="400" text-anchor="start">持续展示进度</text>
<rect x="920" y="333" width="250" height="76" fill="#fff" stroke="#000" stroke-width="1.1"/>
<text x="936" y="358" font-size="15.2" fill="#000" font-weight="800" text-anchor="start">地图分析展示</text>
<text x="936" y="381" font-size="11.8" fill="#000" font-weight="400" text-anchor="start">叠加边界底图</text>
<text x="936" y="396" font-size="11.8" fill="#000" font-weight="400" text-anchor="start">查看结果图层</text>
<rect x="1245" y="333" width="250" height="76" fill="#fff" stroke="#000" stroke-width="1.1"/>
<text x="1261" y="358" font-size="15.2" fill="#000" font-weight="800" text-anchor="start">成果报告管理</text>
<text x="1261" y="381" font-size="11.8" fill="#000" font-weight="400" text-anchor="start">下载图表报告</text>
<text x="1261" y="396" font-size="11.8" fill="#000" font-weight="400" text-anchor="start">归档分析成果</text>
<rect x="270" y="505" width="210" height="72" fill="#fff" stroke="#000" stroke-width="1.1"/>
<text x="286" y="530" font-size="15.2" fill="#000" font-weight="800" text-anchor="start">任务编排引擎</text>
<text x="286" y="553" font-size="11.8" fill="#000" font-weight="400" text-anchor="start">识别问题意图</text>
<text x="286" y="568" font-size="11.8" fill="#000" font-weight="400" text-anchor="start">安排分析步骤</text>
<rect x="520" y="505" width="210" height="72" fill="#fff" stroke="#000" stroke-width="1.1"/>
<text x="536" y="530" font-size="15.2" fill="#000" font-weight="800" text-anchor="start">工具服务中心</text>
<text x="536" y="553" font-size="11.8" fill="#000" font-weight="400" text-anchor="start">气象工具</text>
<text x="536" y="568" font-size="11.8" fill="#000" font-weight="400" text-anchor="start">空间工具</text>
<rect x="770" y="505" width="210" height="72" fill="#fff" stroke="#000" stroke-width="1.1"/>
<text x="786" y="530" font-size="15.2" fill="#000" font-weight="800" text-anchor="start">气象科学计算</text>
<text x="786" y="553" font-size="11.8" fill="#000" font-weight="400" text-anchor="start">统计与阈值</text>
<text x="786" y="568" font-size="11.8" fill="#000" font-weight="400" text-anchor="start">栅格与等值线</text>
<rect x="1020" y="505" width="210" height="72" fill="#fff" stroke="#000" stroke-width="1.1"/>
<text x="1036" y="530" font-size="15.2" fill="#000" font-weight="800" text-anchor="start">模型辅助解读</text>
<text x="1036" y="553" font-size="11.8" fill="#000" font-weight="400" text-anchor="start">基于计算事实</text>
<text x="1036" y="568" font-size="11.8" fill="#000" font-weight="400" text-anchor="start">组织规范文字</text>
<rect x="1270" y="505" width="210" height="72" fill="#fff" stroke="#000" stroke-width="1.1"/>
<text x="1286" y="530" font-size="15.2" fill="#000" font-weight="800" text-anchor="start">质量与审批</text>
<text x="1286" y="553" font-size="11.8" fill="#000" font-weight="400" text-anchor="start">失败原因可见</text>
<text x="1286" y="568" font-size="11.8" fill="#000" font-weight="400" text-anchor="start">人工确认可控</text>
<rect x="270" y="598" width="1210" height="28" fill="#fff" stroke="#000" stroke-width="1.0" stroke-dasharray="6 4"/>
<text x="875" y="617" font-size="13" fill="#000" font-weight="800" text-anchor="middle">短时临近预报（短临）降水专项链路：资料序列 → 降水强度 → 移动趋势 → 影响范围 → 预报文字</text>
<rect x="270" y="708" width="250" height="70" fill="#fff" stroke="#000" stroke-width="1.1"/>
<text x="286" y="733" font-size="15.2" fill="#000" font-weight="800" text-anchor="start">气象资料库</text>
<text x="286" y="756" font-size="11.8" fill="#000" font-weight="400" text-anchor="start">格点、雷达、短时临近预报（短临）</text>
<text x="286" y="771" font-size="11.8" fill="#000" font-weight="400" text-anchor="start">原始资料受控</text>
<rect x="595" y="708" width="250" height="70" fill="#fff" stroke="#000" stroke-width="1.1"/>
<text x="611" y="733" font-size="15.2" fill="#000" font-weight="800" text-anchor="start">空间图层库</text>
<text x="611" y="756" font-size="11.8" fill="#000" font-weight="400" text-anchor="start">区划、站点、区域</text>
<text x="611" y="771" font-size="11.8" fill="#000" font-weight="400" text-anchor="start">支撑地图叠加</text>
<rect x="920" y="708" width="250" height="70" fill="#fff" stroke="#000" stroke-width="1.1"/>
<text x="936" y="733" font-size="15.2" fill="#000" font-weight="800" text-anchor="start">运行记录库</text>
<text x="936" y="756" font-size="11.8" fill="#000" font-weight="400" text-anchor="start">任务过程留痕</text>
<text x="936" y="771" font-size="11.8" fill="#000" font-weight="400" text-anchor="start">便于复盘审计</text>
<rect x="1245" y="708" width="250" height="70" fill="#fff" stroke="#000" stroke-width="1.1"/>
<text x="1261" y="733" font-size="15.2" fill="#000" font-weight="800" text-anchor="start">成果文件库</text>
<text x="1261" y="756" font-size="11.8" fill="#000" font-weight="400" text-anchor="start">图片、报告、数据</text>
<text x="1261" y="771" font-size="11.8" fill="#000" font-weight="400" text-anchor="start">按任务归档</text>
<rect x="270" y="872" width="210" height="58" fill="#fff" stroke="#000" stroke-width="1.1"/>
<text x="286" y="897" font-size="15.2" fill="#000" font-weight="800" text-anchor="start">本地部署</text>
<text x="286" y="920" font-size="11.8" fill="#000" font-weight="400" text-anchor="start">空间数据库用容器</text>
<text x="286" y="935" font-size="11.8" fill="#000" font-weight="400" text-anchor="start">其他服务在本机</text>
<rect x="520" y="872" width="210" height="58" fill="#fff" stroke="#000" stroke-width="1.1"/>
<text x="536" y="897" font-size="15.2" fill="#000" font-weight="800" text-anchor="start">工具准入</text>
<text x="536" y="920" font-size="11.8" fill="#000" font-weight="400" text-anchor="start">先登记校验</text>
<text x="536" y="935" font-size="11.8" fill="#000" font-weight="400" text-anchor="start">再显式启用</text>
<rect x="770" y="872" width="210" height="58" fill="#fff" stroke="#000" stroke-width="1.1"/>
<text x="786" y="897" font-size="15.2" fill="#000" font-weight="800" text-anchor="start">安全边界</text>
<text x="786" y="920" font-size="11.8" fill="#000" font-weight="400" text-anchor="start">文件路径受控</text>
<text x="786" y="935" font-size="11.8" fill="#000" font-weight="400" text-anchor="start">禁止越界访问</text>
<rect x="1020" y="872" width="210" height="58" fill="#fff" stroke="#000" stroke-width="1.1"/>
<text x="1036" y="897" font-size="15.2" fill="#000" font-weight="800" text-anchor="start">过程追溯</text>
<text x="1036" y="920" font-size="11.8" fill="#000" font-weight="400" text-anchor="start">进度实时可见</text>
<text x="1036" y="935" font-size="11.8" fill="#000" font-weight="400" text-anchor="start">结果可复盘</text>
<rect x="1270" y="872" width="210" height="58" fill="#fff" stroke="#000" stroke-width="1.1"/>
<text x="1286" y="897" font-size="15.2" fill="#000" font-weight="800" text-anchor="start">能力扩展</text>
<text x="1286" y="920" font-size="11.8" fill="#000" font-weight="400" text-anchor="start">模型可替换</text>
<text x="1286" y="935" font-size="11.8" fill="#000" font-weight="400" text-anchor="start">工具可增加</text>
<line x1="720" y1="250" x2="720" y2="333" stroke="#000" stroke-width="1.7" marker-end="url(#arrow)"/>
<rect x="689.0" y="283" width="62" height="24" fill="#fff" stroke="#000" stroke-width="0.8"/>
<text x="720" y="300" font-size="11.2" fill="#000" font-weight="800" text-anchor="middle">业务请求</text>
<line x1="720" y1="409" x2="720" y2="505" stroke="#000" stroke-width="1.7" marker-end="url(#arrow)"/>
<rect x="689.0" y="445" width="62" height="24" fill="#fff" stroke="#000" stroke-width="0.8"/>
<text x="720" y="462" font-size="11.2" fill="#000" font-weight="800" text-anchor="middle">任务下发</text>
<line x1="480" y1="541" x2="520" y2="541" stroke="#000" stroke-width="1.5" marker-end="url(#arrow)"/>
<rect x="471.0" y="509" width="58" height="24" fill="#fff" stroke="#000" stroke-width="0.8"/>
<text x="500" y="526" font-size="11.2" fill="#000" font-weight="800" text-anchor="middle">调度</text>
<line x1="730" y1="541" x2="770" y2="541" stroke="#000" stroke-width="1.5" marker-end="url(#arrow)"/>
<rect x="721.0" y="509" width="58" height="24" fill="#fff" stroke="#000" stroke-width="0.8"/>
<text x="750" y="526" font-size="11.2" fill="#000" font-weight="800" text-anchor="middle">调用</text>
<line x1="980" y1="541" x2="1020" y2="541" stroke="#000" stroke-width="1.5" marker-end="url(#arrow)"/>
<rect x="971.0" y="509" width="58" height="24" fill="#fff" stroke="#000" stroke-width="0.8"/>
<text x="1000" y="526" font-size="11.2" fill="#000" font-weight="800" text-anchor="middle">解释</text>
<line x1="1230" y1="541" x2="1270" y2="541" stroke="#000" stroke-width="1.5" marker-end="url(#arrow)"/>
<rect x="1221.0" y="509" width="58" height="24" fill="#fff" stroke="#000" stroke-width="0.8"/>
<text x="1250" y="526" font-size="11.2" fill="#000" font-weight="800" text-anchor="middle">校验</text>
<line x1="1370" y1="505" x2="1370" y2="409" stroke="#000" stroke-width="1.7" stroke-dasharray="7 4" marker-end="url(#arrow)"/>
<rect x="1397.0" y="442" width="62" height="24" fill="#fff" stroke="#000" stroke-width="0.8"/>
<text x="1428" y="459" font-size="11.2" fill="#000" font-weight="800" text-anchor="middle">成果返回</text>
<line x1="1370" y1="333" x2="1370" y2="250" stroke="#000" stroke-width="1.7" stroke-dasharray="7 4" marker-end="url(#arrow)"/>
<rect x="1339.0" y="283" width="62" height="24" fill="#fff" stroke="#000" stroke-width="0.8"/>
<text x="1370" y="300" font-size="11.2" fill="#000" font-weight="800" text-anchor="middle">服务业务</text>
<path d="M 395 708 L 395 660 L 820 660 L 820 577" fill="none" stroke="#000" stroke-width="1.4" stroke-dasharray="7 4" marker-end="url(#arrow)"/>
<rect x="484.0" y="637" width="62" height="24" fill="#fff" stroke="#000" stroke-width="0.8"/>
<text x="515" y="654" font-size="11.2" fill="#000" font-weight="800" text-anchor="middle">气象资料</text>
<path d="M 720 708 L 720 660 L 1045 660 L 1045 409" fill="none" stroke="#000" stroke-width="1.4" stroke-dasharray="7 4" marker-end="url(#arrow)"/>
<rect x="689.0" y="637" width="62" height="24" fill="#fff" stroke="#000" stroke-width="0.8"/>
<text x="720" y="654" font-size="11.2" fill="#000" font-weight="800" text-anchor="middle">空间图层</text>
<line x1="1045" y1="708" x2="1045" y2="577" stroke="#000" stroke-width="1.4" stroke-dasharray="2 4" marker-end="url(#arrow)"/>
<rect x="1074.0" y="639" width="62" height="24" fill="#fff" stroke="#000" stroke-width="0.8"/>
<text x="1105" y="656" font-size="11.2" fill="#000" font-weight="800" text-anchor="middle">过程留痕</text>
<line x1="1370" y1="409" x2="1370" y2="708" stroke="#000" stroke-width="1.4" stroke-dasharray="7 4" marker-end="url(#arrow)"/>
<rect x="1399.0" y="545" width="62" height="24" fill="#fff" stroke="#000" stroke-width="0.8"/>
<text x="1430" y="562" font-size="11.2" fill="#000" font-weight="800" text-anchor="middle">成果入库</text>
<line x1="875" y1="778" x2="875" y2="872" stroke="#000" stroke-width="1.4" stroke-dasharray="2 4" marker-end="url(#arrow)"/>
<rect x="844.0" y="817" width="62" height="24" fill="#fff" stroke="#000" stroke-width="0.8"/>
<text x="875" y="834" font-size="11.2" fill="#000" font-weight="800" text-anchor="middle">运行支撑</text>
<line x1="395" y1="333" x2="395" y2="250" stroke="#000" stroke-width="1.3" stroke-dasharray="7 4" marker-end="url(#arrow)"/>
<rect x="419.0" y="275" width="62" height="24" fill="#fff" stroke="#000" stroke-width="0.8"/>
<text x="450" y="292" font-size="11.2" fill="#000" font-weight="800" text-anchor="middle">资料管理</text>
<line x1="1045" y1="333" x2="1045" y2="250" stroke="#000" stroke-width="1.3" stroke-dasharray="7 4" marker-end="url(#arrow)"/>
<rect x="1069.0" y="275" width="62" height="24" fill="#fff" stroke="#000" stroke-width="0.8"/>
<text x="1100" y="292" font-size="11.2" fill="#000" font-weight="800" text-anchor="middle">图层展示</text>
<line x1="1370" y1="708" x2="1370" y2="577" stroke="#000" stroke-width="1.3" stroke-dasharray="7 4" marker-end="url(#arrow)"/>
<rect x="1397.0" y="636" width="62" height="24" fill="#fff" stroke="#000" stroke-width="0.8"/>
<text x="1428" y="653" font-size="11.2" fill="#000" font-weight="800" text-anchor="middle">报告成果</text>
<rect x="50" y="990" width="950" height="36" fill="#fff" stroke="#000" stroke-width="1.0"/>
<text x="72" y="1014" font-size="13" fill="#000" font-weight="800" text-anchor="start">架构要点：气象结论先由工具计算事实，再由模型组织语言；所有资料、过程和成果均可追溯。</text>
<rect x="1040" y="990" width="510" height="36" fill="#fff" stroke="#000" stroke-width="1.0"/>
<line x1="1060" y1="1008" x2="1110" y2="1008" stroke="#000" stroke-width="1.8" marker-end="url(#arrow)"/>
<text x="1120" y="1012" font-size="11.5" fill="#000" font-weight="400" text-anchor="start">业务控制</text>
<line x1="1220" y1="1008" x2="1270" y2="1008" stroke="#000" stroke-width="1.8" stroke-dasharray="7 4" marker-end="url(#arrow)"/>
<text x="1280" y="1012" font-size="11.5" fill="#000" font-weight="400" text-anchor="start">数据成果</text>
<line x1="1380" y1="1008" x2="1430" y2="1008" stroke="#000" stroke-width="1.8" stroke-dasharray="2 4" marker-end="url(#arrow)"/>
<text x="1440" y="1012" font-size="11.5" fill="#000" font-weight="400" text-anchor="start">过程记录</text>
</svg>